<svg xmlns="http://www.w3.org/2000/svg"><symbol id="icon-logo-vertigo" viewBox="0 0 446 151"><path d="M172.747 39.988h14.411l-15.704 67.587h-25.345l-15.704-67.587h14.412l11.729 55.66h4.472l11.729-55.66Zm28.152 48.404c.066 3.048.861 5.268 2.385 6.66 1.59 1.325 3.843 1.987 6.759 1.987 6.162 0 11.662-.199 16.499-.596l2.783-.298.199 9.84c-7.62 1.855-14.512 2.783-20.674 2.783-7.487 0-12.921-1.988-16.3-5.964-3.38-3.976-5.069-10.436-5.069-19.382 0-17.824 7.322-26.736 21.965-26.736 14.445 0 21.668 7.487 21.668 22.462l-.994 9.244h-29.221Zm17.095-10.138c0-3.976-.629-6.726-1.888-8.25-1.259-1.59-3.479-2.385-6.66-2.385-3.114 0-5.334.828-6.659 2.485-1.259 1.59-1.921 4.307-1.988 8.15h17.195Zm20.651 29.321V57.878h13.219v5.268c5.566-3.313 10.867-5.466 15.903-6.46v13.418c-5.368 1.126-9.973 2.286-13.816 3.478l-1.988.696v33.297h-13.318Zm62.524-38.365h-12.225v20.375c0 1.988.033 3.412.1 4.274.132.795.497 1.49 1.093 2.087.663.596 1.656.894 2.982.894l7.554-.198.596 10.635c-4.44.994-7.819 1.491-10.138 1.491-5.964 0-10.039-1.326-12.225-3.976-2.187-2.717-3.28-7.687-3.28-14.91V69.21h-5.865V57.88h5.865V44.063h13.318v13.816h12.225v11.33Zm6.685 38.365V57.878h13.319v49.697h-13.319Zm0-56.058V38h13.319v13.517h-13.319Zm68.662 62.22c0 5.699-2.187 9.906-6.56 12.623-4.373 2.717-10.304 4.075-17.791 4.075-7.421 0-13.153-.994-17.195-2.982-3.976-1.988-5.964-5.599-5.964-10.833 0-4.175 2.386-8.118 7.157-11.828-2.452-1.657-3.678-4.175-3.678-7.554 0-1.325.994-3.512 2.982-6.56l.894-1.391c-4.505-3.247-6.758-8.018-6.758-14.313 0-6.361 1.888-10.966 5.665-13.816 3.843-2.849 8.912-4.273 15.207-4.273 2.849 0 5.666.33 8.449.994l1.59.298 16.002-.497v10.635l-7.454-.597c1.457 2.253 2.186 4.506 2.186 6.76 0 6.625-1.689 11.197-5.069 13.715-3.379 2.518-8.68 3.777-15.903 3.777-1.524 0-2.882-.132-4.075-.397-.662 1.722-.994 3.147-.994 4.274 0 1.06.564 1.788 1.69 2.186 1.126.398 3.777.63 7.951.696 8.349.066 14.048 1.193 17.096 3.379 3.048 2.121 4.572 5.997 4.572 11.629Zm-34.39 1.491c0 2.849 3.479 4.274 10.436 4.274 7.024 0 10.536-1.657 10.536-4.97 0-1.789-.596-2.948-1.789-3.478-1.193-.464-3.711-.729-7.554-.796l-8.945-.695c-1.789 1.789-2.684 3.677-2.684 5.665Zm.795-40.651c0 4.837 2.518 7.255 7.554 7.255 5.102 0 7.653-2.418 7.653-7.255 0-4.904-2.551-7.356-7.653-7.356-5.036 0-7.554 2.452-7.554 7.355Zm42.359-11.033c3.512-4.572 9.376-6.858 17.593-6.858 8.216 0 14.081 2.286 17.592 6.858 3.512 4.506 5.268 10.867 5.268 19.083 0 17.427-7.62 26.141-22.86 26.141-15.24 0-22.86-8.714-22.86-26.14 0-8.217 1.756-14.578 5.267-19.084Zm10.238 30.315c1.391 2.385 3.843 3.578 7.355 3.578 3.512 0 5.93-1.193 7.256-3.578 1.391-2.386 2.087-6.13 2.087-11.232 0-5.102-.696-8.813-2.087-11.132-1.326-2.319-3.744-3.478-7.256-3.478s-5.964 1.16-7.355 3.478c-1.325 2.32-1.988 6.03-1.988 11.132 0 5.102.663 8.846 1.988 11.232Z"/><path fill-rule="evenodd" clip-rule="evenodd" d="M79.888 36.197a42 42 0 0 0-37.072 2.43l-5.63 3.25-6.5-11.258 5.63-3.25a55 55 0 1 1 51.826 96.959C80.575 128.059 70.816 130 63.816 130s-11.088-1.05-16.456-3.273a43 43 0 1 1 58.384-49.268 42.008 42.008 0 0 0-25.856-41.262Zm-42.035 65.834c.737-13.976 12.303-25.08 26.462-25.08 13.613 0 24.828 10.263 26.33 23.473a29.999 29.999 0 1 0-52.792 1.607Zm39.962 1.419c0 7.456-6.044 13.5-13.5 13.5-7.455 0-13.5-6.044-13.5-13.5s6.045-13.5 13.5-13.5c7.456 0 13.5 6.044 13.5 13.5Z"/></symbol></svg>